<svg width="1708" height="1521" viewBox="0 0 1708 1521" fill="none" xmlns="http://www.w3.org/2000/svg">
<path d="M1530.95 565C1530.95 549.887 1524.95 535.391 1514.28 524.695C1503.6 513.999 1489.11 507.977 1474 507.95C1489.1 507.95 1503.59 501.95 1514.27 491.27C1524.95 480.59 1530.95 466.104 1530.95 451C1530.98 466.113 1537 480.599 1547.69 491.276C1558.39 501.953 1572.89 507.95 1588 507.95C1572.88 507.977 1558.38 513.996 1547.69 524.689C1537 535.382 1530.98 549.878 1530.95 565Z" stroke="#232F3E" stroke-width="8" stroke-linejoin="round"/>
<path d="M1416.7 294C1416.7 278.883 1410.62 264.384 1399.8 253.695C1388.98 243.005 1374.3 237 1359 237C1374.3 237 1388.98 230.995 1399.8 220.305C1410.62 209.616 1416.7 195.117 1416.7 180C1416.7 195.049 1422.72 209.487 1433.46 220.165C1444.19 230.844 1458.77 236.895 1474 237C1458.7 237 1444.02 243.005 1433.2 253.695C1422.38 264.384 1416.3 278.883 1416.3 294H1416.7Z" stroke="#232F3E" stroke-width="8" stroke-linejoin="round"/>
<path d="M138.517 1144.06C57.7346 1092.5 2.30461 1002.97 4.03961 902.75" stroke="#252F3E" stroke-width="8" stroke-linejoin="round"/>
<path d="M137.861 1144.5C180.861 1173.33 299.861 1231 431.861 1231" stroke="#252F3E" stroke-width="8"/>
<path d="M4.04102 902.75C4.04102 750.19 120.683 625.006 269.813 611.129C269.62 606.792 269.138 602.552 269.138 598.215C269.138 491.821 355.511 405.569 461.936 405.569C513.606 405.569 560.456 426 594.967 459.055C654.349 301.295 806.273 188.637 984.901 188.637C1215.1 188.637 1401.73 375.212 1401.73 605.25V605.443C1527.14 646.208 1617.76 763.88 1617.76 902.75C1617.76 986.15 1585.13 1061.93 1531.93 1118" stroke="#252F3E" stroke-width="8" stroke-linejoin="round"/>
<path d="M472.05 910.36C452.774 917.73 431.237 921.41 407.439 921.41C367.221 921.41 336.76 910.72 316.056 889.33C295.352 867.71 285 836.1 285 794.51C285 753.4 295.828 721.559 317.484 698.983C339.14 676.407 369.601 665.12 408.867 665.12C429.809 665.12 449.68 668.447 468.48 675.1V717.163C446.824 712.41 429.095 710.034 415.292 710.034C390.543 710.034 371.98 716.569 359.606 729.64C347.469 742.71 341.4 762.67 341.4 789.52V797.72C341.4 824.34 347.35 844.18 359.249 857.25C371.148 870.08 389.353 876.5 413.864 876.5C427.667 876.5 447.062 873.77 472.05 868.3V910.36Z" fill="#252F3E"/>
<path d="M588.505 913.22C578.51 917.26 567.801 919.28 556.378 919.28C524.251 919.28 508.188 901.33 508.188 865.45V653H560.305V861.17C560.305 867.83 561.375 872.58 563.516 875.43C565.896 878.04 569.705 879.35 574.94 879.35C578.272 879.35 582.793 879 588.505 878.28V913.22Z" fill="#252F3E"/>
<path d="M701.816 922.13C673.497 922.13 651.365 913.69 635.421 896.82C619.476 879.71 611.504 855.94 611.504 825.53C611.504 795.35 619.476 771.82 635.421 754.95C651.365 737.84 673.497 729.28 701.816 729.28C730.135 729.28 752.267 737.84 768.212 754.95C784.156 771.82 792.128 795.35 792.128 825.53C792.128 855.94 784.156 879.71 768.212 896.82C752.267 913.69 730.135 922.13 701.816 922.13ZM701.816 882.2C726.804 882.2 739.298 863.31 739.298 825.53C739.298 787.98 726.804 769.21 701.816 769.21C676.829 769.21 664.335 787.98 664.335 825.53C664.335 863.31 676.829 882.2 701.816 882.2Z" fill="#252F3E"/>
<path d="M954.101 916.78L949.101 897.53C927.921 913.93 905.791 922.13 882.711 922.13C866.521 922.13 853.911 917.37 844.871 907.87C835.831 898.13 831.301 884.82 831.301 867.95V734.63H883.421V853.33C883.421 872.58 891.751 882.2 908.411 882.2C920.781 882.2 932.921 878.4 944.821 870.8V734.63H996.941V916.78H954.101Z" fill="#252F3E"/>
<path d="M1169.92 916.78L1165.64 900.74C1150.89 914.05 1133.4 920.7 1113.17 920.7C1098.17 920.7 1084.97 917.02 1073.54 909.65C1062.12 902.05 1053.2 891.11 1046.77 876.86C1040.58 862.6 1037.49 845.84 1037.49 826.6C1037.49 797.13 1044.51 773.6 1058.55 756.02C1072.59 738.19 1091.15 729.28 1114.24 729.28C1133.04 729.28 1149.34 734.63 1163.14 745.32V653H1215.26V916.78H1169.92ZM1130.3 881.49C1141.72 881.49 1152.67 878.16 1163.14 871.51V777.4C1152.91 771.46 1141.13 768.49 1127.8 768.49C1115.19 768.49 1105.79 773.25 1099.6 782.75C1093.42 792.02 1090.32 806.16 1090.32 825.17C1090.32 844.18 1093.53 858.32 1099.96 867.59C1106.62 876.86 1116.74 881.49 1130.3 881.49Z" fill="#252F3E"/>
<path d="M695.237 1240.88C675.961 1248.25 654.423 1251.93 630.626 1251.93C590.408 1251.93 559.947 1241.24 539.243 1219.85C518.539 1198.22 508.188 1166.62 508.188 1125.03C508.188 1083.92 519.016 1052.08 540.672 1029.5C562.328 1006.92 592.789 995.641 632.055 995.641C652.997 995.641 672.867 998.961 691.667 1005.62V1047.68C670.011 1042.93 652.282 1040.55 638.479 1040.55C613.729 1040.55 595.168 1047.09 582.794 1060.16C570.657 1073.23 564.587 1093.19 564.587 1120.04V1128.24C564.587 1154.85 570.537 1174.7 582.436 1187.77C594.334 1200.6 612.541 1207.02 637.052 1207.02C650.855 1207.02 670.25 1204.28 695.237 1198.82V1240.88Z" fill="#252F3E"/>
<path d="M811.692 1243.73C801.697 1247.77 790.988 1249.79 779.565 1249.79C747.438 1249.79 731.375 1231.85 731.375 1195.97V983.52H783.491V1191.69C783.491 1198.34 784.562 1203.1 786.704 1205.95C789.084 1208.56 792.892 1209.87 798.127 1209.87C801.459 1209.87 805.98 1209.51 811.692 1208.8V1243.73Z" fill="#252F3E"/>
<path d="M968.831 1247.3L963.831 1228.05C942.651 1244.44 920.521 1252.64 897.431 1252.64C881.251 1252.64 868.641 1247.89 859.591 1238.39C850.551 1228.64 846.031 1215.33 846.031 1198.46V1065.15H898.151V1183.85C898.151 1203.1 906.481 1212.72 923.131 1212.72C935.511 1212.72 947.651 1208.92 959.541 1201.31V1065.15H1011.66V1247.3H968.831Z" fill="#252F3E"/>
<path d="M1061.5 1247.3V983.52H1113.61V1079.05C1120.51 1073.11 1128.61 1068.47 1137.89 1065.15C1147.17 1061.58 1156.33 1059.8 1165.37 1059.8C1188.46 1059.8 1206.66 1068.24 1219.99 1085.11C1233.55 1101.98 1240.34 1124.79 1240.34 1153.55C1240.34 1172.32 1237.24 1189.07 1231.05 1203.81C1224.87 1218.54 1215.94 1230.19 1204.28 1238.74C1192.62 1247.06 1179.18 1251.22 1163.95 1251.22C1153 1251.22 1142.77 1249.32 1133.25 1245.51C1123.73 1241.71 1115.76 1236.37 1109.33 1229.47L1104.69 1247.3H1061.5ZM1148.6 1099.01C1136.22 1099.01 1124.56 1102.22 1113.61 1108.63V1202.38C1124.08 1208.8 1135.75 1212.01 1148.6 1212.01C1161.92 1212.01 1171.68 1207.49 1177.87 1198.46C1184.29 1189.43 1187.51 1175.17 1187.51 1155.69C1187.51 1135.96 1184.41 1121.59 1178.22 1112.55C1172.04 1103.52 1162.16 1099.01 1148.6 1099.01Z" fill="#252F3E"/>
<path d="M1358.58 1197.04C1358.58 1192.28 1357.15 1188.6 1354.29 1185.99C1351.67 1183.37 1346.2 1180.52 1337.87 1177.43L1310.03 1166.38C1295.51 1160.68 1285.04 1153.67 1278.61 1145.35C1272.19 1137.03 1268.98 1126.46 1268.98 1113.62C1268.98 1097.46 1275.4 1084.51 1288.25 1074.77C1301.34 1064.79 1318.71 1059.8 1340.37 1059.8C1360.36 1059.8 1378.8 1063.72 1395.7 1071.56V1106.14C1377.61 1100.67 1360.72 1097.94 1345.01 1097.94C1335.25 1097.94 1328.11 1099.13 1323.59 1101.5C1319.07 1103.88 1316.81 1107.68 1316.81 1112.91C1316.81 1116.95 1318.12 1120.28 1320.74 1122.89C1323.59 1125.27 1329.42 1128.24 1338.23 1131.8L1365.36 1142.85C1380.11 1148.79 1390.58 1155.69 1396.77 1163.53C1403.2 1171.37 1406.41 1181.59 1406.41 1194.18C1406.41 1211.77 1399.63 1226.03 1386.06 1236.96C1372.73 1247.65 1355.12 1253 1333.23 1253C1308.72 1253 1287.06 1248.13 1268.26 1238.39V1203.81C1291.82 1211.18 1313.36 1214.86 1332.87 1214.86C1350.01 1214.86 1358.58 1208.92 1358.58 1197.04Z" fill="#252F3E"/>
<path d="M605 118C605 102.883 599.1 88.385 588.598 77.695C578.096 67.005 563.852 61 549 61C556.354 61 563.636 59.526 570.43 56.661C577.225 53.797 583.398 49.598 588.598 44.305C593.798 39.012 597.923 32.729 600.737 25.813C603.552 18.897 605 11.485 605 4C605 11.485 606.449 18.897 609.263 25.813C612.077 32.729 616.202 39.012 621.402 44.305C626.602 49.598 632.775 53.797 639.57 56.661C646.364 59.526 653.646 61 661 61C646.148 61 631.904 67.005 621.402 77.695C610.9 88.385 605 102.883 605 118Z" stroke="#232F3E" stroke-width="8" stroke-linejoin="round"/>
<path d="M128.549 564.901C128.497 549.805 122.516 535.345 111.917 524.689C101.318 514.033 86.964 508.05 72 508.05C86.998 508.05 101.381 502.039 111.986 491.34C122.591 480.641 128.549 466.13 128.549 451C128.536 458.487 129.987 465.903 132.818 472.824C135.649 479.745 139.805 486.035 145.048 491.334C150.292 496.633 156.519 500.837 163.374 503.705C170.23 506.573 177.578 508.05 185 508.05C170.028 508.05 155.67 514.05 145.083 524.73C134.497 535.41 128.549 549.896 128.549 565V564.901Z" stroke="#232F3E" stroke-width="8" stroke-linejoin="round"/>
<path d="M387.402 246.4C387.402 250.1 387.802 253.1 388.502 255.3C389.302 257.5 390.302 259.9 391.702 262.5C392.202 263.3 392.402 264.1 392.402 264.8C392.402 265.8 391.802 266.8 390.502 267.8L384.202 272C383.302 272.6 382.402 272.9 381.602 272.9C380.602 272.9 379.602 272.4 378.602 271.5C377.202 270 376.002 268.4 375.002 266.8C374.002 265.1 373.002 263.2 371.902 260.9C364.102 270.1 354.302 274.7 342.502 274.7C334.102 274.7 327.402 272.3 322.502 267.5C317.602 262.7 315.102 256.3 315.102 248.3C315.102 239.8 318.102 232.9 324.202 227.7C330.302 222.5 338.402 219.9 348.702 219.9C352.102 219.9 355.602 220.2 359.302 220.7C363.002 221.2 366.802 222 370.802 222.9V215.6C370.802 208 369.202 202.7 366.102 199.6C362.902 196.5 357.502 195 349.802 195C346.302 195 342.702 195.4 339.002 196.3C335.302 197.2 331.702 198.3 328.202 199.7C326.602 200.4 325.402 200.8 324.702 201C324.002 201.2 323.502 201.3 323.102 201.3C321.702 201.3 321.002 200.3 321.002 198.2V193.3C321.002 191.7 321.202 190.5 321.702 189.8C322.202 189.1 323.102 188.4 324.502 187.7C328.002 185.9 332.202 184.4 337.102 183.2C342.002 181.9 347.202 181.3 352.702 181.3C364.602 181.3 373.302 184 378.902 189.4C384.402 194.8 387.202 203 387.202 214V246.4H387.402ZM346.802 261.6C350.102 261.6 353.502 261 357.102 259.8C360.702 258.6 363.902 256.4 366.602 253.4C368.202 251.5 369.402 249.4 370.002 247C370.602 244.6 371.002 241.7 371.002 238.3V234.1C368.102 233.4 365.002 232.8 361.802 232.4C358.602 232 355.502 231.8 352.402 231.8C345.702 231.8 340.802 233.1 337.502 235.8C334.202 238.5 332.602 242.3 332.602 247.3C332.602 252 333.802 255.5 336.302 257.9C338.702 260.4 342.202 261.6 346.802 261.6ZM427.102 272.4C425.302 272.4 424.102 272.1 423.302 271.4C422.502 270.8 421.802 269.4 421.202 267.5L397.702 190.2C397.102 188.2 396.802 186.9 396.802 186.2C396.802 184.6 397.602 183.7 399.202 183.7H409.002C410.902 183.7 412.202 184 412.902 184.7C413.702 185.3 414.302 186.7 414.902 188.6L431.702 254.8L447.302 188.6C447.802 186.6 448.402 185.3 449.202 184.7C450.002 184.1 451.402 183.7 453.202 183.7H461.202C463.102 183.7 464.402 184 465.202 184.7C466.002 185.3 466.702 186.7 467.102 188.6L482.902 255.6L500.202 188.6C500.802 186.6 501.502 185.3 502.202 184.7C503.002 184.1 504.302 183.7 506.102 183.7H515.402C517.002 183.7 517.902 184.5 517.902 186.2C517.902 186.7 517.802 187.2 517.702 187.8C517.602 188.4 517.402 189.2 517.002 190.3L492.902 267.6C492.302 269.6 491.602 270.9 490.802 271.5C490.002 272.1 488.702 272.5 487.002 272.5H478.402C476.502 272.5 475.202 272.2 474.402 271.5C473.602 270.8 472.902 269.5 472.502 267.5L457.002 203L441.602 267.4C441.102 269.4 440.502 270.7 439.702 271.4C438.902 272.1 437.502 272.4 435.702 272.4H427.102ZM555.602 275.1C550.402 275.1 545.202 274.5 540.202 273.3C535.202 272.1 531.302 270.8 528.702 269.3C527.102 268.4 526.002 267.4 525.602 266.5C525.202 265.6 525.002 264.6 525.002 263.7V258.6C525.002 256.5 525.802 255.5 527.302 255.5C527.902 255.5 528.502 255.6 529.102 255.8C529.702 256 530.602 256.4 531.602 256.8C535.002 258.3 538.702 259.5 542.602 260.3C546.602 261.1 550.502 261.5 554.502 261.5C560.802 261.5 565.702 260.4 569.102 258.2C572.502 256 574.302 252.8 574.302 248.7C574.302 245.9 573.402 243.6 571.602 241.7C569.802 239.8 566.402 238.1 561.502 236.5L547.002 232C539.702 229.7 534.302 226.3 531.002 221.8C527.702 217.4 526.002 212.5 526.002 207.3C526.002 203.1 526.902 199.4 528.702 196.2C530.502 193 532.902 190.2 535.902 188C538.902 185.7 542.302 184 546.302 182.8C550.302 181.6 554.502 181.1 558.902 181.1C561.102 181.1 563.402 181.2 565.602 181.5C567.902 181.8 570.002 182.2 572.102 182.6C574.102 183.1 576.002 183.6 577.802 184.2C579.602 184.8 581.002 185.4 582.002 186C583.402 186.8 584.402 187.6 585.002 188.5C585.602 189.3 585.902 190.4 585.902 191.8V196.5C585.902 198.6 585.102 199.7 583.602 199.7C582.802 199.7 581.502 199.3 579.802 198.5C574.102 195.9 567.702 194.6 560.602 194.6C554.902 194.6 550.402 195.5 547.302 197.4C544.202 199.3 542.602 202.2 542.602 206.3C542.602 209.1 543.602 211.5 545.602 213.4C547.602 215.3 551.302 217.2 556.602 218.9L570.802 223.4C578.002 225.7 583.202 228.9 586.302 233C589.402 237.1 590.902 241.8 590.902 247C590.902 251.3 590.002 255.2 588.302 258.6C586.502 262 584.102 265 581.002 267.4C577.902 269.9 574.202 271.7 569.902 273C565.402 274.4 560.702 275.1 555.602 275.1Z" fill="#252F3E"/>
<path d="M574.5 323.7C541.6 348 493.8 360.9 452.7 360.9C395.1 360.9 343.2 339.6 304 304.2C300.9 301.4 303.7 297.6 307.4 299.8C349.8 324.4 402.1 339.3 456.2 339.3C492.7 339.3 532.8 331.7 569.7 316.1C575.2 313.6 579.9 319.7 574.5 323.7Z" fill="#252F3E"/>
<path d="M588.202 308.1C584.002 302.7 560.402 305.5 549.702 306.8C546.502 307.2 546.002 304.4 548.902 302.3C567.702 289.1 598.602 292.9 602.202 297.3C605.802 301.8 601.202 332.7 583.602 347.5C580.902 349.8 578.302 348.6 579.502 345.6C583.502 335.7 592.402 313.4 588.202 308.1Z" fill="#252F3E"/>
<path d="M1014.63 1470C1007.29 1470 1001.69 1468.27 997.825 1464.8C993.958 1461.2 992.025 1455.67 992.025 1448.2V1443.8C986.692 1452.2 980.358 1458.93 973.025 1464C965.825 1468.93 957.292 1471.4 947.425 1471.4C940.625 1471.4 934.358 1469.93 928.625 1467C923.025 1464.07 918.492 1459.73 915.025 1454C911.692 1448.13 910.025 1441.07 910.025 1432.8C910.025 1429.73 910.158 1426.93 910.425 1424.4C910.692 1421.73 911.092 1418.8 911.625 1415.6L926.425 1329H945.425L930.025 1419.8C929.625 1422.2 929.358 1424.27 929.225 1426C929.092 1427.6 929.025 1429.4 929.025 1431.4C929.025 1438.6 931.158 1444.33 935.425 1448.6C939.692 1452.73 945.492 1454.8 952.825 1454.8C958.958 1454.8 965.025 1452.93 971.025 1449.2C977.158 1445.47 982.492 1440 987.025 1432.8C991.692 1425.6 994.892 1416.87 996.625 1406.6L1010.43 1329H1029.43L1009.83 1439.8C1009.69 1440.47 1009.56 1441.27 1009.43 1442.2C1009.43 1443 1009.43 1443.87 1009.43 1444.8C1009.43 1448.4 1010.43 1451 1012.43 1452.6C1014.56 1454.2 1017.49 1455 1021.23 1455L1014.63 1470ZM1065.56 1330.6C1071.02 1329.4 1076.49 1328.47 1081.96 1327.8C1087.42 1327 1094.16 1326.6 1102.16 1326.6C1112.82 1326.6 1121.89 1328.27 1129.36 1331.6C1136.96 1334.93 1143.16 1339.53 1147.96 1345.4C1152.76 1351.13 1156.29 1357.73 1158.56 1365.2C1160.82 1372.53 1161.96 1380.27 1161.96 1388.4C1161.96 1404.4 1158.76 1418.67 1152.36 1431.2C1145.96 1443.73 1136.89 1453.6 1125.16 1460.8C1113.42 1467.87 1099.42 1471.4 1083.16 1471.4C1074.62 1471.4 1067.02 1470.8 1060.36 1469.6C1053.69 1468.53 1047.62 1467 1042.16 1465L1065.56 1330.6ZM1100.56 1342.6C1097.09 1342.6 1093.82 1342.8 1090.76 1343.2C1087.69 1343.47 1084.82 1343.93 1082.16 1344.6L1063.36 1452.4C1066.42 1453.2 1069.69 1453.87 1073.16 1454.4C1076.62 1454.8 1080.36 1455 1084.36 1455C1095.96 1455 1106.09 1452.27 1114.76 1446.8C1123.56 1441.33 1130.36 1433.73 1135.16 1424C1139.96 1414.13 1142.36 1402.8 1142.36 1390C1142.36 1381.6 1140.89 1373.8 1137.96 1366.6C1135.02 1359.4 1130.49 1353.6 1124.36 1349.2C1118.22 1344.8 1110.29 1342.6 1100.56 1342.6Z" fill="#252F3E"/>
</svg>
