<svg width="1708" height="1521" viewBox="0 0 1708 1521" fill="none" xmlns="http://www.w3.org/2000/svg">
<path d="M1530.95 565C1530.95 549.887 1524.95 535.391 1514.28 524.695C1503.6 513.999 1489.11 507.977 1474 507.95C1489.1 507.95 1503.59 501.95 1514.27 491.27C1524.95 480.59 1530.95 466.104 1530.95 451C1530.98 466.113 1537 480.599 1547.69 491.276C1558.39 501.953 1572.89 507.95 1588 507.95C1572.88 507.977 1558.38 513.996 1547.69 524.689C1537 535.382 1530.98 549.878 1530.95 565Z" stroke="#232F3E" stroke-width="8" stroke-linejoin="round"/>
<path d="M1416.7 294C1416.7 278.883 1410.62 264.384 1399.8 253.695C1388.98 243.005 1374.3 237 1359 237C1374.3 237 1388.98 230.995 1399.8 220.305C1410.62 209.616 1416.7 195.117 1416.7 180C1416.7 195.049 1422.72 209.487 1433.46 220.165C1444.19 230.844 1458.77 236.895 1474 237C1458.7 237 1444.02 243.005 1433.2 253.695C1422.38 264.384 1416.3 278.883 1416.3 294H1416.7Z" stroke="#232F3E" stroke-width="8" stroke-linejoin="round"/>
<path d="M138.517 1144.06C57.7346 1092.5 2.30461 1002.97 4.03961 902.75" stroke="#252F3E" stroke-width="8" stroke-linejoin="round"/>
<path d="M137.861 1144.5C180.861 1173.33 299.861 1231 431.861 1231" stroke="#252F3E" stroke-width="8"/>
<path d="M4.04102 902.75C4.04102 750.19 120.683 625.006 269.813 611.129C269.62 606.792 269.138 602.552 269.138 598.215C269.138 491.821 355.511 405.569 461.936 405.569C513.606 405.569 560.456 426 594.967 459.055C654.349 301.295 806.273 188.637 984.901 188.637C1215.1 188.637 1401.73 375.212 1401.73 605.25V605.443C1527.14 646.208 1617.76 763.88 1617.76 902.75C1617.76 986.15 1585.13 1061.93 1531.93 1118" stroke="#252F3E" stroke-width="8" stroke-linejoin="round"/>
<path d="M472.051 910.36C452.775 917.73 431.238 921.41 407.44 921.41C367.222 921.41 336.761 910.72 316.057 889.33C295.353 867.71 285.001 836.1 285.001 794.51C285.001 753.4 295.829 721.559 317.485 698.983C339.141 676.407 369.602 665.12 408.868 665.12C429.81 665.12 449.681 668.447 468.481 675.1V717.163C446.825 712.41 429.096 710.034 415.293 710.034C390.544 710.034 371.981 716.569 359.607 729.64C347.47 742.71 341.401 762.67 341.401 789.52V797.72C341.401 824.34 347.351 844.18 359.25 857.25C371.149 870.08 389.354 876.5 413.865 876.5C427.668 876.5 447.063 873.77 472.051 868.3V910.36Z" fill="#252F3E"/>
<path d="M588.505 913.22C578.51 917.26 567.801 919.28 556.378 919.28C524.251 919.28 508.188 901.33 508.188 865.45V653H560.305V861.17C560.305 867.83 561.376 872.58 563.517 875.43C565.897 878.04 569.705 879.35 574.94 879.35C578.272 879.35 582.793 879 588.505 878.28V913.22Z" fill="#252F3E"/>
<path d="M701.816 922.13C673.497 922.13 651.365 913.69 635.421 896.82C619.476 879.71 611.504 855.94 611.504 825.53C611.504 795.35 619.476 771.82 635.421 754.95C651.365 737.84 673.497 729.28 701.816 729.28C730.135 729.28 752.267 737.84 768.212 754.95C784.156 771.82 792.128 795.35 792.128 825.53C792.128 855.94 784.156 879.71 768.212 896.82C752.267 913.69 730.135 922.13 701.816 922.13ZM701.816 882.2C726.804 882.2 739.298 863.31 739.298 825.53C739.298 787.98 726.804 769.21 701.816 769.21C676.829 769.21 664.335 787.98 664.335 825.53C664.335 863.31 676.829 882.2 701.816 882.2Z" fill="#252F3E"/>
<path d="M954.101 916.78L949.101 897.53C927.921 913.93 905.791 922.13 882.711 922.13C866.521 922.13 853.911 917.37 844.871 907.87C835.831 898.13 831.301 884.82 831.301 867.95V734.63H883.421V853.33C883.421 872.58 891.751 882.2 908.411 882.2C920.781 882.2 932.921 878.4 944.821 870.8V734.63H996.941V916.78H954.101Z" fill="#252F3E"/>
<path d="M1169.92 916.78L1165.64 900.74C1150.89 914.05 1133.4 920.7 1113.17 920.7C1098.17 920.7 1084.97 917.02 1073.54 909.65C1062.12 902.05 1053.2 891.11 1046.77 876.86C1040.58 862.6 1037.49 845.84 1037.49 826.6C1037.49 797.13 1044.51 773.6 1058.55 756.02C1072.59 738.19 1091.15 729.28 1114.24 729.28C1133.04 729.28 1149.34 734.63 1163.14 745.32V653H1215.26V916.78H1169.92ZM1130.3 881.49C1141.72 881.49 1152.67 878.16 1163.14 871.51V777.4C1152.91 771.46 1141.13 768.49 1127.8 768.49C1115.19 768.49 1105.79 773.25 1099.6 782.75C1093.42 792.02 1090.32 806.16 1090.32 825.17C1090.32 844.18 1093.53 858.32 1099.96 867.59C1106.62 876.86 1116.74 881.49 1130.3 881.49Z" fill="#252F3E"/>
<path d="M695.237 1240.88C675.961 1248.25 654.424 1251.93 630.627 1251.93C590.409 1251.93 559.948 1241.24 539.244 1219.85C518.54 1198.22 508.188 1166.62 508.188 1125.03C508.188 1083.92 519.016 1052.08 540.672 1029.5C562.328 1006.92 592.789 995.641 632.055 995.641C652.997 995.641 672.868 998.961 691.668 1005.62V1047.68C670.012 1042.93 652.283 1040.55 638.48 1040.55C613.73 1040.55 595.168 1047.09 582.794 1060.16C570.657 1073.23 564.588 1093.19 564.588 1120.04V1128.24C564.588 1154.85 570.538 1174.7 582.437 1187.77C594.335 1200.6 612.541 1207.02 637.052 1207.02C650.855 1207.02 670.25 1204.28 695.237 1198.82V1240.88Z" fill="#252F3E"/>
<path d="M811.692 1243.73C801.697 1247.77 790.988 1249.79 779.565 1249.79C747.438 1249.79 731.375 1231.85 731.375 1195.97V983.52H783.491V1191.69C783.491 1198.34 784.562 1203.1 786.704 1205.95C789.084 1208.56 792.892 1209.87 798.127 1209.87C801.459 1209.87 805.98 1209.51 811.692 1208.8V1243.73Z" fill="#252F3E"/>
<path d="M968.831 1247.3L963.831 1228.05C942.651 1244.44 920.521 1252.64 897.431 1252.64C881.251 1252.64 868.641 1247.89 859.591 1238.39C850.551 1228.64 846.031 1215.33 846.031 1198.46V1065.15H898.151V1183.85C898.151 1203.1 906.481 1212.72 923.131 1212.72C935.511 1212.72 947.651 1208.92 959.541 1201.31V1065.15H1011.66V1247.3H968.831Z" fill="#252F3E"/>
<path d="M1061.5 1247.3V983.52H1113.61V1079.05C1120.51 1073.11 1128.61 1068.47 1137.89 1065.15C1147.17 1061.58 1156.33 1059.8 1165.37 1059.8C1188.46 1059.8 1206.66 1068.24 1219.99 1085.11C1233.55 1101.98 1240.34 1124.79 1240.34 1153.55C1240.34 1172.32 1237.24 1189.07 1231.05 1203.81C1224.87 1218.54 1215.94 1230.19 1204.28 1238.74C1192.62 1247.06 1179.18 1251.22 1163.95 1251.22C1153 1251.22 1142.77 1249.32 1133.25 1245.51C1123.73 1241.71 1115.76 1236.37 1109.33 1229.47L1104.69 1247.3H1061.5ZM1148.6 1099.01C1136.22 1099.01 1124.56 1102.22 1113.61 1108.63V1202.38C1124.08 1208.8 1135.75 1212.01 1148.6 1212.01C1161.92 1212.01 1171.68 1207.49 1177.87 1198.46C1184.29 1189.43 1187.51 1175.17 1187.51 1155.69C1187.51 1135.96 1184.41 1121.59 1178.22 1112.55C1172.04 1103.52 1162.16 1099.01 1148.6 1099.01Z" fill="#252F3E"/>
<path d="M1358.58 1197.04C1358.58 1192.28 1357.15 1188.6 1354.29 1185.99C1351.67 1183.37 1346.2 1180.52 1337.87 1177.43L1310.03 1166.38C1295.51 1160.68 1285.04 1153.67 1278.61 1145.35C1272.19 1137.03 1268.98 1126.46 1268.98 1113.62C1268.98 1097.46 1275.4 1084.51 1288.25 1074.77C1301.34 1064.79 1318.71 1059.8 1340.37 1059.8C1360.36 1059.8 1378.8 1063.72 1395.7 1071.56V1106.14C1377.61 1100.67 1360.72 1097.94 1345.01 1097.94C1335.25 1097.94 1328.11 1099.13 1323.59 1101.5C1319.07 1103.88 1316.81 1107.68 1316.81 1112.91C1316.81 1116.95 1318.12 1120.28 1320.74 1122.89C1323.59 1125.27 1329.42 1128.24 1338.23 1131.8L1365.36 1142.85C1380.11 1148.79 1390.58 1155.69 1396.77 1163.53C1403.2 1171.37 1406.41 1181.59 1406.41 1194.18C1406.41 1211.77 1399.63 1226.03 1386.06 1236.96C1372.73 1247.65 1355.12 1253 1333.23 1253C1308.72 1253 1287.06 1248.13 1268.26 1238.39V1203.81C1291.82 1211.18 1313.36 1214.86 1332.87 1214.86C1350.01 1214.86 1358.58 1208.92 1358.58 1197.04Z" fill="#252F3E"/>
<path d="M605.001 118C605.001 102.883 599.101 88.385 588.599 77.695C578.097 67.005 563.853 61 549.001 61C556.355 61 563.637 59.526 570.431 56.661C577.226 53.797 583.399 49.598 588.599 44.305C593.799 39.012 597.924 32.729 600.738 25.813C603.553 18.897 605.001 11.485 605.001 4C605.001 11.485 606.45 18.897 609.264 25.813C612.078 32.729 616.203 39.012 621.403 44.305C626.603 49.598 632.776 53.797 639.571 56.661C646.365 59.526 653.647 61 661.001 61C646.149 61 631.905 67.005 621.403 77.695C610.901 88.385 605.001 102.883 605.001 118Z" stroke="#232F3E" stroke-width="8" stroke-linejoin="round"/>
<path d="M128.55 564.901C128.498 549.805 122.517 535.345 111.918 524.689C101.319 514.033 86.965 508.05 72.001 508.05C86.999 508.05 101.382 502.039 111.987 491.34C122.592 480.641 128.55 466.13 128.55 451C128.537 458.487 129.988 465.903 132.819 472.824C135.65 479.745 139.806 486.035 145.049 491.334C150.293 496.633 156.52 500.837 163.375 503.705C170.231 506.573 177.579 508.05 185.001 508.05C170.029 508.05 155.671 514.05 145.084 524.73C134.498 535.41 128.55 549.896 128.55 565V564.901Z" stroke="#232F3E" stroke-width="8" stroke-linejoin="round"/>
<path d="M387.401 246.4C387.401 250.1 387.801 253.1 388.501 255.3C389.301 257.5 390.301 259.9 391.701 262.5C392.201 263.3 392.401 264.1 392.401 264.8C392.401 265.8 391.801 266.8 390.501 267.8L384.201 272C383.301 272.6 382.401 272.9 381.601 272.9C380.601 272.9 379.601 272.4 378.601 271.5C377.201 270 376.001 268.4 375.001 266.8C374.001 265.1 373.001 263.2 371.901 260.9C364.101 270.1 354.301 274.7 342.501 274.7C334.101 274.7 327.401 272.3 322.501 267.5C317.601 262.7 315.101 256.3 315.101 248.3C315.101 239.8 318.101 232.9 324.201 227.7C330.301 222.5 338.401 219.9 348.701 219.9C352.101 219.9 355.601 220.2 359.301 220.7C363.001 221.2 366.801 222 370.801 222.9V215.6C370.801 208 369.201 202.7 366.101 199.6C362.901 196.5 357.501 195 349.801 195C346.301 195 342.701 195.4 339.001 196.3C335.301 197.2 331.701 198.3 328.201 199.7C326.601 200.4 325.401 200.8 324.701 201C324.001 201.2 323.501 201.3 323.101 201.3C321.701 201.3 321.001 200.3 321.001 198.2V193.3C321.001 191.7 321.201 190.5 321.701 189.8C322.201 189.1 323.101 188.4 324.501 187.7C328.001 185.9 332.201 184.4 337.101 183.2C342.001 181.9 347.201 181.3 352.701 181.3C364.601 181.3 373.301 184 378.901 189.4C384.401 194.8 387.201 203 387.201 214V246.4H387.401ZM346.801 261.6C350.101 261.6 353.501 261 357.101 259.8C360.701 258.6 363.901 256.4 366.601 253.4C368.201 251.5 369.401 249.4 370.001 247C370.601 244.6 371.001 241.7 371.001 238.3V234.1C368.101 233.4 365.001 232.8 361.801 232.4C358.601 232 355.501 231.8 352.401 231.8C345.701 231.8 340.801 233.1 337.501 235.8C334.201 238.5 332.601 242.3 332.601 247.3C332.601 252 333.801 255.5 336.301 257.9C338.701 260.4 342.201 261.6 346.801 261.6ZM427.101 272.4C425.301 272.4 424.101 272.1 423.301 271.4C422.501 270.8 421.801 269.4 421.201 267.5L397.701 190.2C397.101 188.2 396.801 186.9 396.801 186.2C396.801 184.6 397.601 183.7 399.201 183.7H409.001C410.901 183.7 412.201 184 412.901 184.7C413.701 185.3 414.301 186.7 414.901 188.6L431.701 254.8L447.301 188.6C447.801 186.6 448.401 185.3 449.201 184.7C450.001 184.1 451.401 183.7 453.201 183.7H461.201C463.101 183.7 464.401 184 465.201 184.7C466.001 185.3 466.701 186.7 467.101 188.6L482.901 255.6L500.201 188.6C500.801 186.6 501.501 185.3 502.201 184.7C503.001 184.1 504.301 183.7 506.101 183.7H515.401C517.001 183.7 517.901 184.5 517.901 186.2C517.901 186.7 517.801 187.2 517.701 187.8C517.601 188.4 517.401 189.2 517.001 190.3L492.901 267.6C492.301 269.6 491.601 270.9 490.801 271.5C490.001 272.1 488.701 272.5 487.001 272.5H478.401C476.501 272.5 475.201 272.2 474.401 271.5C473.601 270.8 472.901 269.5 472.501 267.5L457.001 203L441.601 267.4C441.101 269.4 440.501 270.7 439.701 271.4C438.901 272.1 437.501 272.4 435.701 272.4H427.101ZM555.601 275.1C550.401 275.1 545.201 274.5 540.201 273.3C535.201 272.1 531.301 270.8 528.701 269.3C527.101 268.4 526.001 267.4 525.601 266.5C525.201 265.6 525.001 264.6 525.001 263.7V258.6C525.001 256.5 525.801 255.5 527.301 255.5C527.901 255.5 528.501 255.6 529.101 255.8C529.701 256 530.601 256.4 531.601 256.8C535.001 258.3 538.701 259.5 542.601 260.3C546.601 261.1 550.501 261.5 554.501 261.5C560.801 261.5 565.701 260.4 569.101 258.2C572.501 256 574.301 252.8 574.301 248.7C574.301 245.9 573.401 243.6 571.601 241.7C569.801 239.8 566.401 238.1 561.501 236.5L547.001 232C539.701 229.7 534.301 226.3 531.001 221.8C527.701 217.4 526.001 212.5 526.001 207.3C526.001 203.1 526.901 199.4 528.701 196.2C530.501 193 532.901 190.2 535.901 188C538.901 185.7 542.301 184 546.301 182.8C550.301 181.6 554.501 181.1 558.901 181.1C561.101 181.1 563.401 181.2 565.601 181.5C567.901 181.8 570.001 182.2 572.101 182.6C574.101 183.1 576.001 183.6 577.801 184.2C579.601 184.8 581.001 185.4 582.001 186C583.401 186.8 584.401 187.6 585.001 188.5C585.601 189.3 585.901 190.4 585.901 191.8V196.5C585.901 198.6 585.101 199.7 583.601 199.7C582.801 199.7 581.501 199.3 579.801 198.5C574.101 195.9 567.701 194.6 560.601 194.6C554.901 194.6 550.401 195.5 547.301 197.4C544.201 199.3 542.601 202.2 542.601 206.3C542.601 209.1 543.601 211.5 545.601 213.4C547.601 215.3 551.301 217.2 556.601 218.9L570.801 223.4C578.001 225.7 583.201 228.9 586.301 233C589.401 237.1 590.901 241.8 590.901 247C590.901 251.3 590.001 255.2 588.301 258.6C586.501 262 584.101 265 581.001 267.4C577.901 269.9 574.201 271.7 569.901 273C565.401 274.4 560.701 275.1 555.601 275.1Z" fill="#252F3E"/>
<path d="M574.501 323.7C541.601 348 493.801 360.9 452.701 360.9C395.101 360.9 343.201 339.6 304.001 304.2C300.901 301.4 303.701 297.6 307.401 299.8C349.801 324.4 402.101 339.3 456.201 339.3C492.701 339.3 532.801 331.7 569.701 316.1C575.201 313.6 579.901 319.7 574.501 323.7Z" fill="#252F3E"/>
<path d="M588.201 308.1C584.001 302.7 560.401 305.5 549.701 306.8C546.501 307.2 546.001 304.4 548.901 302.3C567.701 289.1 598.601 292.9 602.201 297.3C605.801 301.8 601.201 332.7 583.601 347.5C580.901 349.8 578.301 348.6 579.501 345.6C583.501 335.7 592.401 313.4 588.201 308.1Z" fill="#252F3E"/>
<path d="M591.378 1469L615.978 1329H634.978L610.378 1469H591.378ZM754.47 1470C747.136 1470 741.536 1468.27 737.67 1464.8C733.803 1461.2 731.87 1455.67 731.87 1448.2V1443.8C726.536 1452.2 720.203 1458.93 712.87 1464C705.67 1468.93 697.136 1471.4 687.27 1471.4C680.47 1471.4 674.203 1469.93 668.47 1467C662.87 1464.07 658.336 1459.73 654.87 1454C651.536 1448.13 649.87 1441.07 649.87 1432.8C649.87 1429.73 650.003 1426.93 650.27 1424.4C650.536 1421.73 650.936 1418.8 651.47 1415.6L666.27 1329H685.27L669.87 1419.8C669.47 1422.2 669.203 1424.27 669.07 1426C668.936 1427.6 668.87 1429.4 668.87 1431.4C668.87 1438.6 671.003 1444.33 675.27 1448.6C679.536 1452.73 685.336 1454.8 692.67 1454.8C698.803 1454.8 704.87 1452.93 710.87 1449.2C717.003 1445.47 722.336 1440 726.87 1432.8C731.536 1425.6 734.736 1416.87 736.47 1406.6L750.27 1329H769.27L749.67 1439.8C749.536 1440.47 749.403 1441.27 749.27 1442.2C749.27 1443 749.27 1443.87 749.27 1444.8C749.27 1448.4 750.27 1451 752.27 1452.6C754.403 1454.2 757.336 1455 761.07 1455L754.47 1470ZM805.403 1330.6C810.869 1329.4 816.336 1328.47 821.803 1327.8C827.269 1327 834.003 1326.6 842.003 1326.6C852.669 1326.6 861.736 1328.27 869.203 1331.6C876.803 1334.93 883.003 1339.53 887.803 1345.4C892.603 1351.13 896.136 1357.73 898.403 1365.2C900.669 1372.53 901.803 1380.27 901.803 1388.4C901.803 1404.4 898.603 1418.67 892.203 1431.2C885.803 1443.73 876.736 1453.6 865.003 1460.8C853.269 1467.87 839.269 1471.4 823.003 1471.4C814.469 1471.4 806.869 1470.8 800.203 1469.6C793.536 1468.53 787.469 1467 782.003 1465L805.403 1330.6ZM840.403 1342.6C836.936 1342.6 833.669 1342.8 830.603 1343.2C827.536 1343.47 824.669 1343.93 822.003 1344.6L803.203 1452.4C806.269 1453.2 809.536 1453.87 813.003 1454.4C816.469 1454.8 820.203 1455 824.203 1455C835.803 1455 845.936 1452.27 854.603 1446.8C863.403 1441.33 870.203 1433.73 875.003 1424C879.803 1414.13 882.203 1402.8 882.203 1390C882.203 1381.6 880.736 1373.8 877.803 1366.6C874.869 1359.4 870.336 1353.6 864.203 1349.2C858.069 1344.8 850.136 1342.6 840.403 1342.6ZM914.62 1469L939.22 1329H958.22L933.62 1469H914.62ZM1042.71 1343.2C1032.71 1343.2 1023.71 1346.13 1015.71 1352C1007.71 1357.87 1001.38 1366 996.712 1376.4C992.045 1386.8 989.712 1398.8 989.712 1412.4C989.712 1424.93 992.712 1435.13 998.712 1443C1004.71 1450.87 1012.98 1454.8 1023.51 1454.8C1029.65 1454.8 1035.31 1453.27 1040.51 1450.2C1045.71 1447.13 1050.11 1442.93 1053.71 1437.6C1057.31 1432.27 1059.71 1426.27 1060.91 1419.6L1062.71 1409.8H1033.51L1036.11 1394.8H1083.11L1075.31 1439.8C1075.18 1440.47 1075.05 1441.27 1074.91 1442.2C1074.91 1443 1074.91 1443.87 1074.91 1444.8C1074.91 1448.4 1075.91 1451 1077.91 1452.6C1080.05 1454.2 1082.98 1455 1086.71 1455L1080.11 1470C1065.45 1470 1058.11 1462.87 1058.11 1448.6C1053.98 1455 1048.65 1460.4 1042.11 1464.8C1035.58 1469.2 1027.65 1471.4 1018.31 1471.4C1009.11 1471.4 1000.85 1469.2 993.512 1464.8C986.312 1460.27 980.579 1453.8 976.312 1445.4C972.179 1436.87 970.112 1426.73 970.112 1415C970.112 1402.33 971.912 1390.6 975.512 1379.8C979.112 1369 984.179 1359.67 990.712 1351.8C997.245 1343.8 1004.98 1337.6 1013.91 1333.2C1022.98 1328.8 1032.91 1326.6 1043.71 1326.6C1052.25 1326.6 1059.78 1327.8 1066.31 1330.2C1072.85 1332.47 1078.85 1335.4 1084.31 1339L1074.31 1354.2C1069.51 1350.87 1064.65 1348.2 1059.71 1346.2C1054.91 1344.2 1049.25 1343.2 1042.71 1343.2ZM1101.53 1469L1126.13 1329H1145.13L1120.53 1469H1101.53ZM1166.03 1329H1271.03L1268.03 1345.8H1225.03L1203.43 1469H1184.43L1206.03 1345.8H1163.03L1166.03 1329ZM1240.85 1461.6L1317.65 1329H1339.05L1369.65 1466.8L1351.45 1471L1343.05 1431H1278.25L1256.05 1470.6L1240.85 1461.6ZM1287.25 1415H1339.65L1325.45 1347.6L1287.25 1415ZM1412.07 1329H1431.07L1409.47 1452H1473.67L1470.67 1469H1387.47L1412.07 1329Z" fill="#252F3E"/>
</svg>
